<svg width="154" height="51" viewBox="0 0 154 51" fill="none" xmlns="http://www.w3.org/2000/svg">
<path d="M52.498 43.17H56.1217V44.8681H52.498V43.17Z" fill="black"/>
<path d="M63.2504 42.2733H59.7164V47.8432H57.7317V40.5345H63.2504V42.2733Z" fill="black"/>
<path d="M71.108 40.5345V47.8432H69.2002V46.9874C68.9441 47.3043 68.6283 47.5444 68.2527 47.7074C67.8856 47.8704 67.4929 47.9519 67.0747 47.9519C66.1698 47.9519 65.4485 47.6757 64.9107 47.1232C64.3815 46.5708 64.1169 45.7511 64.1169 44.6643V40.5345H66.1143V44.3519C66.1143 45.5292 66.5796 46.1179 67.51 46.1179C67.9966 46.1179 68.385 45.9549 68.6752 45.6289C68.9654 45.2938 69.1105 44.8002 69.1105 44.1481V40.5345H71.108Z" fill="black"/>
<path d="M79.8622 40.5345V47.8432H77.8647V42.2733H74.9965V47.8432H73.0119V40.5345H79.8622Z" fill="black"/>
<path d="M85.2089 46.2538C85.5674 46.2538 85.8832 46.1994 86.1564 46.0908C86.4381 45.973 86.6984 45.7919 86.9375 45.5473L88.0002 46.77C87.3515 47.5579 86.4039 47.9519 85.1577 47.9519C84.3809 47.9519 83.6937 47.7934 83.0962 47.4764C82.4986 47.1504 82.0377 46.7021 81.7133 46.1315C81.3889 45.5609 81.2267 44.9134 81.2267 44.1888C81.2267 43.4734 81.3846 42.8303 81.7005 42.2598C82.0249 41.6801 82.4645 41.2318 83.0193 40.9148C83.5827 40.5888 84.2144 40.4258 84.9144 40.4258C85.5717 40.4258 86.1692 40.5752 86.707 40.8741C87.2448 41.1639 87.6716 41.5896 87.9874 42.1511C88.3118 42.7035 88.474 43.3602 88.474 44.1209L83.3779 45.167C83.523 45.5292 83.7492 45.8009 84.0565 45.9821C84.3723 46.1632 84.7565 46.2538 85.2089 46.2538ZM84.9144 42.0288C84.4107 42.0288 84.001 42.2009 83.6852 42.5451C83.3693 42.8892 83.2029 43.3647 83.1858 43.9715L86.5405 43.2786C86.4466 42.8983 86.2546 42.5949 85.9643 42.3684C85.6741 42.142 85.3241 42.0288 84.9144 42.0288Z" fill="black"/>
<path d="M93.389 40.4258C94.1232 40.4258 94.7634 40.5797 95.3097 40.8877C95.856 41.1956 96.2785 41.6349 96.5773 42.2054C96.8761 42.776 97.0255 43.4417 97.0255 44.2024C97.0255 44.9451 96.8846 45.6017 96.6029 46.1723C96.3212 46.7338 95.9243 47.173 95.4121 47.49C94.8999 47.7979 94.3109 47.9519 93.6451 47.9519C92.7659 47.9519 92.0787 47.6576 91.5836 47.0689V50.4787H89.5861V44.216C89.5861 43.4643 89.7441 42.8032 90.0599 42.2326C90.3758 41.662 90.8196 41.2182 91.3916 40.9013C91.9635 40.5843 92.6293 40.4258 93.389 40.4258ZM93.2994 46.213C93.8201 46.213 94.2427 46.0274 94.567 45.656C94.8914 45.2847 95.0536 44.8002 95.0536 44.2024C95.0536 43.5956 94.8914 43.1066 94.567 42.7352C94.2427 42.3549 93.8201 42.1647 93.2994 42.1647C92.7787 42.1647 92.3561 42.3503 92.0318 42.7217C91.7159 43.093 91.558 43.582 91.558 44.1888C91.558 44.7956 91.7159 45.2847 92.0318 45.656C92.3476 46.0274 92.7702 46.213 93.2994 46.213Z" fill="black"/>
<path d="M105.155 47.8432V43.4688L103.094 47.1368H102.249L100.238 43.4552V47.8432H98.4329V40.5345H100.52L102.722 44.7594L105.066 40.5345H106.935L106.961 47.8432H105.155Z" fill="black"/>
<path d="M115.827 40.5345V47.8432H113.919V47.0009C113.424 47.6349 112.707 47.9519 111.768 47.9519C111.119 47.9519 110.53 47.7979 110.001 47.49C109.48 47.1821 109.07 46.7428 108.772 46.1723C108.473 45.6017 108.323 44.9405 108.323 44.1888C108.323 43.4371 108.473 42.776 108.772 42.2054C109.07 41.6349 109.48 41.1956 110.001 40.8877C110.53 40.5797 111.119 40.4258 111.768 40.4258C112.647 40.4258 113.334 40.7201 113.829 41.3088V40.5345H115.827ZM112.113 46.213C112.617 46.213 113.035 46.0319 113.368 45.6696C113.701 45.2983 113.868 44.8047 113.868 44.1888C113.868 43.573 113.701 43.0839 113.368 42.7217C113.035 42.3503 112.617 42.1647 112.113 42.1647C111.601 42.1647 111.179 42.3503 110.846 42.7217C110.513 43.0839 110.346 43.573 110.346 44.1888C110.346 44.8047 110.513 45.2983 110.846 45.6696C111.179 46.0319 111.601 46.213 112.113 46.213Z" fill="black"/>
<path d="M121.248 40.4258C121.983 40.4258 122.623 40.5797 123.169 40.8877C123.715 41.1956 124.138 41.6349 124.437 42.2054C124.735 42.776 124.885 43.4417 124.885 44.2024C124.885 44.9451 124.744 45.6017 124.462 46.1723C124.181 46.7338 123.784 47.173 123.271 47.49C122.759 47.7979 122.17 47.9519 121.505 47.9519C120.625 47.9519 119.938 47.6576 119.443 47.0689V50.4787H117.446V44.216C117.446 43.4643 117.603 42.8032 117.919 42.2326C118.235 41.662 118.679 41.2182 119.251 40.9013C119.823 40.5843 120.489 40.4258 121.248 40.4258ZM121.159 46.213C121.68 46.213 122.102 46.0274 122.426 45.656C122.751 45.2847 122.913 44.8002 122.913 44.2024C122.913 43.5956 122.751 43.1066 122.426 42.7352C122.102 42.3549 121.68 42.1647 121.159 42.1647C120.638 42.1647 120.216 42.3503 119.891 42.7217C119.575 43.093 119.417 43.582 119.417 44.1888C119.417 44.7956 119.575 45.2847 119.891 45.656C120.207 46.0274 120.63 46.213 121.159 46.213Z" fill="black"/>
<path d="M129.327 45.0719H128.29V47.8432H126.292V40.5345H128.29V43.3737H129.365L131.235 40.5345H133.36L130.953 44.0394L133.527 47.8432H131.171L129.327 45.0719Z" fill="black"/>
<path d="M137.727 46.2538C138.085 46.2538 138.401 46.1994 138.674 46.0908C138.956 45.973 139.216 45.7919 139.455 45.5473L140.518 46.77C139.869 47.5579 138.922 47.9519 137.675 47.9519C136.899 47.9519 136.211 47.7934 135.614 47.4764C135.016 47.1504 134.555 46.7021 134.231 46.1315C133.907 45.5609 133.744 44.9134 133.744 44.1888C133.744 43.4734 133.902 42.8303 134.218 42.2598C134.543 41.6801 134.982 41.2318 135.537 40.9148C136.1 40.5888 136.732 40.4258 137.432 40.4258C138.089 40.4258 138.687 40.5752 139.225 40.8741C139.762 41.1639 140.189 41.5896 140.505 42.1511C140.829 42.7035 140.992 43.3602 140.992 44.1209L135.896 45.167C136.041 45.5292 136.267 45.8009 136.574 45.9821C136.89 46.1632 137.274 46.2538 137.727 46.2538ZM137.432 42.0288C136.928 42.0288 136.519 42.2009 136.203 42.5451C135.887 42.8892 135.721 43.3647 135.703 43.9715L139.058 43.2786C138.964 42.8983 138.772 42.5949 138.482 42.3684C138.192 42.142 137.842 42.0288 137.432 42.0288Z" fill="black"/>
<path d="M151.182 40.4258C152.044 40.4258 152.727 40.6975 153.231 41.2409C153.743 41.7752 153.999 42.5813 153.999 43.659V47.8432H152.002V43.9851C152.002 43.4054 151.886 42.9752 151.656 42.6945C151.434 42.4047 151.114 42.2598 150.696 42.2598C150.226 42.2598 149.855 42.4228 149.582 42.7488C149.308 43.0658 149.172 43.5413 149.172 44.1753V47.8432H147.174V43.9851C147.174 42.8349 146.739 42.2598 145.868 42.2598C145.407 42.2598 145.04 42.4228 144.767 42.7488C144.494 43.0658 144.357 43.5413 144.357 44.1753V47.8432H142.36V40.5345H144.268V41.3767C144.524 41.0688 144.835 40.8333 145.202 40.6703C145.578 40.5073 145.988 40.4258 146.432 40.4258C146.918 40.4258 147.358 40.5299 147.751 40.7382C148.143 40.9375 148.459 41.2318 148.698 41.6213C148.98 41.2409 149.334 40.9465 149.761 40.7382C150.196 40.5299 150.67 40.4258 151.182 40.4258Z" fill="black"/>
<path d="M3.79008 47.9517C3.0645 47.9517 2.41148 47.7932 1.83102 47.4762C1.25909 47.1502 0.81094 46.7019 0.486564 46.1313C0.162188 45.5607 0 44.9132 0 44.1886C0 43.4641 0.162188 42.8165 0.486564 42.246C0.81094 41.6754 1.25909 41.2316 1.83102 40.9146C2.41148 40.5886 3.0645 40.4256 3.79008 40.4256C4.51566 40.4256 5.16441 40.5886 5.73633 40.9146C6.30826 41.2316 6.75641 41.6754 7.08079 42.246C7.40516 42.8165 7.56735 43.4641 7.56735 44.1886C7.56735 44.9132 7.40516 45.5607 7.08079 46.1313C6.75641 46.7019 6.30826 47.1502 5.73633 47.4762C5.16441 47.7932 4.51566 47.9517 3.79008 47.9517ZM3.79008 46.2128C4.30225 46.2128 4.72052 46.0317 5.0449 45.6694C5.37781 45.2981 5.54427 44.8045 5.54427 44.1886C5.54427 43.5728 5.37781 43.0837 5.0449 42.7214C4.72052 42.3501 4.30225 42.1644 3.79008 42.1644C3.2779 42.1644 2.85536 42.3501 2.52245 42.7214C2.18954 43.0837 2.02308 43.5728 2.02308 44.1886C2.02308 44.8045 2.18954 45.2981 2.52245 45.6694C2.85536 46.0317 3.2779 46.2128 3.79008 46.2128Z" fill="#54C144"/>
<path d="M8.94121 40.5342H10.9259V43.3871H13.9221V40.5342H15.9196V47.843H13.9221V45.1124H10.9259V47.843H8.94121V40.5342Z" fill="#54C144"/>
<path d="M24.4387 40.5342V47.843H22.4413V42.2731H20.2645L20.2005 43.5637C20.1664 44.5237 20.081 45.3207 19.9444 45.9547C19.8078 46.5886 19.5859 47.0868 19.2786 47.449C18.9713 47.8113 18.5445 47.9924 17.9982 47.9924C17.7079 47.9924 17.3622 47.9381 16.961 47.8294L17.0634 46.0905C17.2 46.1086 17.2982 46.1177 17.358 46.1177C17.6567 46.1177 17.8787 46.0045 18.0238 45.7781C18.1774 45.5426 18.2799 45.2483 18.3311 44.895C18.3823 44.5328 18.4207 44.0573 18.4463 43.4686L18.5488 40.5342H24.4387Z" fill="#54C144"/>
<path d="M33.3123 40.5342V47.843H31.4045V47.0007C30.9094 47.6347 30.1923 47.9517 29.2534 47.9517C28.6046 47.9517 28.0156 47.7977 27.4864 47.4898C26.9657 47.1819 26.5559 46.7426 26.2572 46.172C25.9584 45.6015 25.809 44.9403 25.809 44.1886C25.809 43.4369 25.9584 42.7758 26.2572 42.2052C26.5559 41.6346 26.9657 41.1954 27.4864 40.8875C28.0156 40.5795 28.6046 40.4256 29.2534 40.4256C30.1326 40.4256 30.8198 40.7199 31.3149 41.3086V40.5342H33.3123ZM29.5991 46.2128C30.1027 46.2128 30.521 46.0317 30.8539 45.6694C31.1868 45.2981 31.3533 44.8045 31.3533 44.1886C31.3533 43.5728 31.1868 43.0837 30.8539 42.7214C30.521 42.3501 30.1027 42.1644 29.5991 42.1644C29.0869 42.1644 28.6644 42.3501 28.3314 42.7214C27.9985 43.0837 27.8321 43.5728 27.8321 44.1886C27.8321 44.8045 27.9985 45.2981 28.3314 45.6694C28.6644 46.0317 29.0869 46.2128 29.5991 46.2128Z" fill="#54C144"/>
<path d="M41.9992 40.5342V47.843H40.0913V46.9871C39.8352 47.3041 39.5194 47.5441 39.1438 47.7072C38.7767 47.8702 38.3841 47.9517 37.9658 47.9517C37.061 47.9517 36.3396 47.6755 35.8019 47.123C35.2726 46.5705 35.008 45.7509 35.008 44.6641V40.5342H37.0055V44.3516C37.0055 45.529 37.4707 46.1177 38.4011 46.1177C38.8877 46.1177 39.2761 45.9547 39.5663 45.6286C39.8566 45.2935 40.0017 44.8 40.0017 44.1479V40.5342H41.9992ZM38.4524 39.7463C36.95 39.7463 36.1945 39.0444 36.186 37.6406H37.492C37.5006 37.9576 37.5817 38.2067 37.7353 38.3878C37.8975 38.5599 38.1323 38.6459 38.4396 38.6459C38.7469 38.6459 38.9816 38.5599 39.1438 38.3878C39.3145 38.2067 39.3999 37.9576 39.3999 37.6406H40.7315C40.723 39.0444 39.9633 39.7463 38.4524 39.7463Z" fill="#54C144"/>
<path d="M43.903 40.5342H45.8877V43.3871H48.8839V40.5342H50.8813V47.843H48.8839V45.1124H45.8877V47.843H43.903V40.5342Z" fill="#54C144"/>
<path d="M116.719 34.3586V11.418H124.69C127.452 11.418 129.546 11.9537 130.974 13.0251C132.401 14.086 133.115 15.6458 133.115 17.7046C133.115 18.8285 132.828 19.8211 132.255 20.6824C131.682 21.5333 130.885 22.1582 129.864 22.5574C131.031 22.8515 131.948 23.445 132.615 24.3378C133.292 25.2306 133.631 26.3231 133.631 27.615C133.631 29.8209 132.933 31.491 131.536 32.6254C130.14 33.7598 128.15 34.3376 125.566 34.3586H116.719ZM121.408 24.3693V30.5614H125.425C126.529 30.5614 127.389 30.2988 128.004 29.7736C128.629 29.2379 128.942 28.5026 128.942 27.5678C128.942 25.467 127.863 24.4008 125.706 24.3693H121.408ZM121.408 21.0291H124.878C127.243 20.9871 128.426 20.0365 128.426 18.1773C128.426 17.1374 128.124 16.3916 127.519 15.9399C126.925 15.4777 125.982 15.2467 124.69 15.2467H121.408V21.0291Z" fill="black"/>
<path d="M144.134 21.7538L148.87 11.418H153.997L146.526 26.0395V34.3586H141.759V26.0395L134.287 11.418H139.43L144.134 21.7538Z" fill="black"/>
<path d="M0 11.2727V5.07979H25.2273V11.2727L10.1746 28.4222H25.2273V34.615H0V28.4222L15.0526 11.2727H0Z" fill="black"/>
<path d="M53.2783 5.25327H29.479V11.4461H49.8968C50.7424 9.66411 51.8152 8.02756 53.2783 6.48217V5.25327Z" fill="black"/>
<path d="M48.3251 16.5128H29.5112V23.182H48.3979C48.0148 20.7654 47.9511 18.7743 48.3251 16.5128Z" fill="black"/>
<path d="M29.5112 34.615V28.4222H50.2407C50.8515 29.5846 51.897 31.3758 53.8742 33.3028V34.615H29.5112Z" fill="black"/>
<path d="M108.613 4.86816H100.885V20.8277L90.3289 4.86816H80.7478L80.7459 6.0455C89.0832 14.6192 87.3012 26.7298 80.7459 33.1021L80.7478 34.4034H90.3471V18.5634L100.503 34.4034H108.613V4.86816Z" fill="black"/>
<path d="M64.1758 0H70.3407V11.6046H64.1758V0Z" fill="#54C144"/>
<path d="M67.2127 36.5381C76.651 36.5381 84.3023 28.8868 84.3023 19.4485C84.3023 11.6207 79.0395 5.02207 71.8591 2.99805V10.9982C74.8194 12.6418 76.8228 15.7998 76.8228 19.4258C76.8228 24.7458 72.51 29.0586 67.19 29.0586C61.87 29.0586 57.5573 24.7458 57.5573 19.4258C57.5573 15.7998 59.5607 12.6418 62.521 10.9982V3.01089C55.3638 5.04986 50.123 11.6371 50.123 19.4485C50.123 28.8868 57.7743 36.5381 67.2127 36.5381Z" fill="#54C144"/>
<rect x="111.1" y="31.2324" width="3.16598" height="3.16598" fill="black"/>
</svg>
